<svg width="12" height="12" viewBox="0 0 12 12" fill="none" xmlns="http://www.w3.org/2000/svg">
<path d="M6.86383 1.72197L7.74373 3.49632C7.86373 3.74331 8.18368 3.98023 8.45368 4.02559L10.0485 4.29275C11.0684 4.46414 11.3084 5.21018 10.5734 5.94613L9.33358 7.19623C9.12358 7.40793 9.00863 7.81623 9.07358 8.10863L9.42858 9.65613C9.70853 10.881 9.06358 11.3549 7.98873 10.7147L6.49388 9.82248C6.22393 9.66118 5.77898 9.66118 5.50398 9.82248L4.00916 10.7147C2.93928 11.3549 2.28935 10.876 2.56932 9.65613L2.92428 8.10863C2.98927 7.81623 2.87429 7.40793 2.66431 7.19623L1.42445 5.94613C0.69453 5.21018 0.929505 4.46414 1.94939 4.29275L3.54421 4.02559C3.80918 3.98023 4.12915 3.74331 4.24913 3.49632L5.12903 1.72197C5.60898 0.759182 6.38888 0.759182 6.86383 1.72197Z" stroke="#777777" stroke-width="0.75" stroke-linecap="round" stroke-linejoin="round"/>
</svg>
