<svg width="16" height="16" viewBox="0 0 16 16" fill="none" xmlns="http://www.w3.org/2000/svg">
<path d="M9.33331 9.33337L11 11" stroke="#030303" stroke-linejoin="round"/>
<path d="M10.9555 12.3501C10.5704 11.9649 10.5704 11.3405 10.9555 10.9555C11.3406 10.5703 11.965 10.5703 12.3501 10.9555L14.3778 12.9831C14.7629 13.3683 14.7629 13.9927 14.3778 14.3777C13.9927 14.7629 13.3683 14.7629 12.9832 14.3777L10.9555 12.3501Z" stroke="#030303" stroke-linecap="round"/>
<path d="M10.6666 6.00004C10.6666 3.42271 8.57731 1.33337 5.99998 1.33337C3.42265 1.33337 1.33331 3.42271 1.33331 6.00004C1.33331 8.57737 3.42265 10.6667 5.99998 10.6667C8.57731 10.6667 10.6666 8.57737 10.6666 6.00004Z" stroke="#030303" stroke-linejoin="round"/>
</svg>
