<svg width="16" height="16" viewBox="0 0 16 16" fill="none" xmlns="http://www.w3.org/2000/svg">
<path d="M12.4107 13.3334H12.7375C13.5041 13.3334 14.1138 12.9841 14.6613 12.4958C16.052 11.2551 12.7827 10 11.6667 10M10.3333 3.37922C10.4847 3.34919 10.6419 3.33337 10.8032 3.33337C12.0165 3.33337 13 4.22881 13 5.33337C13 6.43794 12.0165 7.33337 10.8032 7.33337C10.6419 7.33337 10.4847 7.31757 10.3333 7.28751" stroke="white" stroke-linecap="round"/>
<path d="M2.98754 10.7408C2.20156 11.162 0.140759 12.0221 1.39592 13.0983C2.00906 13.624 2.69194 14 3.55048 14H8.44953C9.30807 14 9.99094 13.624 10.6041 13.0983C11.8593 12.0221 9.79847 11.162 9.01247 10.7408C7.16933 9.75307 4.83066 9.75307 2.98754 10.7408Z" stroke="white"/>
<path d="M8.66667 5.00004C8.66667 6.4728 7.47274 7.66671 6 7.66671C4.52724 7.66671 3.33334 6.4728 3.33334 5.00004C3.33334 3.52728 4.52724 2.33337 6 2.33337C7.47274 2.33337 8.66667 3.52728 8.66667 5.00004Z" stroke="white"/>
</svg>
