<svg width="25" height="24" viewBox="0 0 25 24" fill="none" xmlns="http://www.w3.org/2000/svg">
<path d="M2.77992 14.7696C2.56727 16.1636 3.518 17.1312 4.68205 17.6134C9.14481 19.4622 15.3552 19.4622 19.8179 17.6134C20.982 17.1312 21.9327 16.1636 21.7201 14.7696C21.5894 13.9129 20.9432 13.1995 20.4644 12.5029C19.8373 11.5793 19.775 10.5718 19.7749 9.5C19.7749 5.35786 16.4059 2 12.25 2C8.09413 2 4.72513 5.35786 4.72513 9.5C4.72503 10.5718 4.66272 11.5793 4.03561 12.5029C3.55684 13.1995 2.91061 13.9129 2.77992 14.7696Z" stroke="#999999" stroke-width="1.5" stroke-linecap="round" stroke-linejoin="round"/>
<path d="M8.25 19C8.70849 20.7252 10.3255 22 12.25 22C14.1745 22 15.7915 20.7252 16.25 19" stroke="#999999" stroke-width="1.5" stroke-linecap="round" stroke-linejoin="round"/>
</svg>
