<svg width="25" height="25" viewBox="0 0 25 25" fill="none" xmlns="http://www.w3.org/2000/svg">
<circle cx="12.5" cy="12.5" r="12.5" fill="white"/>
<path d="M12.5507 8.37806C11.9615 8.37806 11.0495 7.71068 10.089 7.7348C8.82189 7.75088 7.65968 8.46651 7.00594 9.60026C5.69038 11.8758 6.66696 15.2369 7.95023 17.0862C8.57977 17.9868 9.32229 19 10.3069 18.9678C11.2512 18.9276 11.6064 18.3567 12.7524 18.3567C13.8904 18.3567 14.2133 18.9678 15.2141 18.9437C16.231 18.9276 16.8767 18.027 17.4981 17.1184C18.2164 16.0731 18.5151 15.06 18.5312 15.0037C18.507 14.9956 16.5538 14.2478 16.5296 11.9964C16.5135 10.1149 18.0712 9.2143 18.1438 9.1741C17.256 7.87953 15.892 7.7348 15.4158 7.70263C14.1729 7.60615 13.1318 8.37806 12.5507 8.37806ZM14.6491 6.48043C15.1737 5.85325 15.5208 4.9768 15.4239 4.1084C14.6733 4.14056 13.7694 4.60693 13.2286 5.23411C12.7444 5.78893 12.3247 6.68145 12.4377 7.53378C13.269 7.5981 14.1245 7.10762 14.6491 6.48043Z" fill="#030303"/>
</svg>
