<svg width="21" height="20" viewBox="0 0 21 20" fill="none" xmlns="http://www.w3.org/2000/svg">
<path d="M17.2918 9.16675V8.33341C17.2918 5.19071 17.2918 3.61937 16.3155 2.64306C15.3392 1.66675 13.7678 1.66675 10.6252 1.66675H9.7919C6.64921 1.66675 5.07787 1.66675 4.10156 2.64305C3.12525 3.61935 3.12523 5.19068 3.12521 8.33336L3.12518 11.6667C3.12515 14.8094 3.12514 16.3807 4.10142 17.3571C5.07773 18.3333 6.64913 18.3334 9.79182 18.3334" stroke="#00B8B8" stroke-width="1.25" stroke-linecap="round" stroke-linejoin="round"/>
<path d="M6.87518 5.83325H13.5418M6.87518 9.99992H13.5418" stroke="#00B8B8" stroke-width="1.25" stroke-linecap="round"/>
<path d="M11.8752 17.3557V18.3334H12.853C13.1942 18.3334 13.3647 18.3334 13.5181 18.2699C13.6715 18.2063 13.7921 18.0857 14.0333 17.8446L18.053 13.8246C18.2805 13.5971 18.3942 13.4833 18.4551 13.3607C18.5708 13.1272 18.5708 12.8531 18.4551 12.6196C18.3942 12.4968 18.2805 12.3831 18.053 12.1556C17.8254 11.9281 17.7117 11.8143 17.5889 11.7535C17.3554 11.6378 17.0812 11.6378 16.8477 11.7535C16.7251 11.8143 16.6112 11.9281 16.3837 12.1556L12.3641 16.1756C12.1228 16.4167 12.0022 16.5373 11.9387 16.6907C11.8752 16.8441 11.8752 17.0146 11.8752 17.3557Z" stroke="#00B8B8" stroke-width="1.25" stroke-linejoin="round"/>
</svg>
