<svg width="16" height="16" viewBox="0 0 16 16" fill="none" xmlns="http://www.w3.org/2000/svg">
<path fill-rule="evenodd" clip-rule="evenodd" d="M12.8919 7.91594C12.8988 10.6343 10.718 12.8525 8 12.8919C6.71152 12.9113 5.46894 12.4139 4.54976 11.5108C3.63057 10.6076 3.11135 9.374 3.10805 8.08538C3.10046 5.36655 5.28143 3.1475 8 3.10805C9.28867 3.08878 10.5314 3.58642 11.4506 4.48983C12.3698 5.39323 12.8889 6.62713 12.8919 7.91594Z" stroke="#00B8B8"/>
<path d="M7.99997 10.2258V7.11276" stroke="#00B8B8"/>
<path d="M7.99591 5.77945C7.96654 5.7799 7.93859 5.7922 7.91841 5.81355C7.89823 5.8349 7.88753 5.8635 7.88873 5.89285C7.89088 5.9535 7.94056 6.00161 8.00125 6.00181C8.03058 6.00123 8.05846 5.9889 8.07861 5.96758C8.09876 5.94625 8.1095 5.91773 8.10843 5.88841C8.10659 5.82918 8.05913 5.78153 7.99991 5.77945H7.99769" stroke="#00B8B8"/>
</svg>
