<svg width="14" height="14" viewBox="0 0 14 14" fill="none" xmlns="http://www.w3.org/2000/svg">
<path d="M8.45823 5.25008C8.45823 6.05549 7.80531 6.70841 6.9999 6.70841C6.19449 6.70841 5.54156 6.05549 5.54156 5.25008C5.54156 4.44467 6.19449 3.79175 6.9999 3.79175C7.80531 3.79175 8.45823 4.44467 8.45823 5.25008Z" stroke="white" stroke-width="0.875"/>
<path d="M10.6297 9.91675C11.4432 11.0767 11.8323 11.6945 11.6006 12.1917C11.5773 12.2416 11.55 12.2897 11.5191 12.3357C11.184 12.8334 10.3178 12.8334 8.58549 12.8334H5.41474C3.6824 12.8334 2.81623 12.8334 2.48108 12.3357C2.45013 12.2897 2.42291 12.2416 2.39967 12.1917C2.16788 11.6945 2.557 11.0767 3.37047 9.91675" stroke="white" stroke-width="0.875" stroke-linecap="round" stroke-linejoin="round"/>
<path d="M7.73338 10.2047C7.53662 10.3941 7.27366 10.5001 7.00002 10.5001C6.72632 10.5001 6.46335 10.3941 6.26659 10.2047C4.46491 8.45888 2.05043 6.50862 3.2279 3.67726C3.86454 2.14635 5.39278 1.16675 7.00002 1.16675C8.60722 1.16675 10.1354 2.14636 10.7721 3.67726C11.9481 6.50507 9.5395 8.46489 7.73338 10.2047Z" stroke="white" stroke-width="0.875"/>
</svg>
