<svg width="25" height="24" viewBox="0 0 25 24" fill="none" xmlns="http://www.w3.org/2000/svg">
<path d="M14.75 14L17.25 16.5" stroke="#999999" stroke-width="1.5" stroke-linejoin="round"/>
<path d="M17.1833 18.5252C16.6056 17.9475 16.6056 17.0109 17.1833 16.4333C17.7609 15.8556 18.6975 15.8556 19.2752 16.4333L22.3167 19.4748C22.8944 20.0525 22.8944 20.9891 22.3167 21.5667C21.7391 22.1444 20.8025 22.1444 20.2248 21.5667L17.1833 18.5252Z" stroke="#999999" stroke-width="1.5" stroke-linecap="round"/>
<path d="M16.75 9C16.75 5.13401 13.616 2 9.75 2C5.88401 2 2.75 5.13401 2.75 9C2.75 12.866 5.88401 16 9.75 16C13.616 16 16.75 12.866 16.75 9Z" stroke="#999999" stroke-width="1.5" stroke-linejoin="round"/>
</svg>
