<svg width="14" height="15" viewBox="0 0 14 15" fill="none" xmlns="http://www.w3.org/2000/svg">
<path d="M12.1182 11C12.5553 11 12.9029 10.725 13.2151 10.3403C13.8541 9.55298 12.8049 8.9238 12.4048 8.61568C11.998 8.30243 11.5438 8.12498 11.0833 8.08333M10.5 6.91667C11.3054 6.91667 11.9583 6.26375 11.9583 5.45833C11.9583 4.65292 11.3054 4 10.5 4" stroke="#00B8B8" stroke-width="0.875" stroke-linecap="round"/>
<path d="M1.88185 11C1.44475 11 1.0971 10.725 0.784941 10.3403C0.145927 9.55298 1.1951 8.9238 1.59525 8.61568C2.00203 8.30243 2.45621 8.12498 2.91671 8.08333M3.20838 6.91667C2.40296 6.91667 1.75004 6.26375 1.75004 5.45833C1.75004 4.65292 2.40296 4 3.20838 4" stroke="#00B8B8" stroke-width="0.875" stroke-linecap="round"/>
<path d="M4.71547 9.31495C4.11943 9.6835 2.55666 10.4361 3.5085 11.3777C3.97346 11.8377 4.49131 12.1667 5.14237 12.1667H8.8575C9.50856 12.1667 10.0264 11.8377 10.4914 11.3777C11.4432 10.4361 9.88043 9.6835 9.28438 9.31495C7.88666 8.45068 6.11315 8.45068 4.71547 9.31495Z" stroke="#00B8B8" stroke-width="0.875" stroke-linecap="round" stroke-linejoin="round"/>
<path d="M9.04172 4.87492C9.04172 6.0025 8.12764 6.91659 7.00005 6.91659C5.87247 6.91659 4.95837 6.0025 4.95837 4.87492C4.95837 3.74734 5.87247 2.83325 7.00005 2.83325C8.12764 2.83325 9.04172 3.74734 9.04172 4.87492Z" stroke="#00B8B8" stroke-width="0.875"/>
</svg>
