<svg width="20" height="20" viewBox="0 0 20 20" fill="none" xmlns="http://www.w3.org/2000/svg">
<path d="M16.4237 6.3754C16.5547 6.24444 16.7804 6.23109 16.9131 6.37586C17.6903 7.22361 18.1205 7.85134 18.2622 8.5465C18.3437 8.9465 18.3552 9.35358 18.2964 9.74958C18.1374 10.8197 17.2703 11.6868 15.5362 13.421L13.4209 15.5362C11.6867 17.2704 10.8197 18.1375 9.74949 18.2965C9.35349 18.3553 8.9464 18.3437 8.5464 18.2622C7.85132 18.1206 7.22366 17.6905 6.37605 16.9134C6.2311 16.7806 6.2445 16.5547 6.3756 16.4236C7.10576 15.6934 7.07106 14.4749 6.29812 13.7019C5.52517 12.929 4.30667 12.8943 3.57651 13.6245C3.44541 13.7556 3.2195 13.769 3.08661 13.624C2.30954 12.7764 1.87945 12.1487 1.73781 11.4537C1.65631 11.0537 1.64472 10.6466 1.70356 10.2506C1.8626 9.18042 2.72966 8.31331 4.4638 6.57918L6.57909 4.46389C8.31322 2.72976 9.18032 1.86269 10.2505 1.70365C10.6465 1.64481 11.0536 1.65641 11.4536 1.73791C12.1487 1.87956 12.7765 2.30972 13.6242 3.08697C13.769 3.21971 13.7557 3.44535 13.6247 3.57631C12.8945 4.30646 12.9292 5.52496 13.7022 6.29791C14.4751 7.07086 15.6937 7.10555 16.4237 6.3754Z" stroke="#00B8B8" stroke-width="1.25" stroke-linejoin="round"/>
<path d="M15.8333 12.5001L7.5 4.16675" stroke="#00B8B8" stroke-width="1.25" stroke-linecap="round" stroke-linejoin="round"/>
</svg>
