<svg width="217" height="61" viewBox="0 0 217 61" fill="none" xmlns="http://www.w3.org/2000/svg">
<path d="M216.243 18.9312H216.753C216.541 20.036 216.18 22.4157 215.67 26.0701C214.522 34.3989 213.29 40.688 211.973 44.9374C208.701 55.6459 203.453 61.0001 196.229 61.0001C194.061 61.0001 192.298 60.5327 190.938 59.5978C189.621 58.7055 188.962 57.5156 188.962 56.0283C188.962 54.5835 189.302 53.3725 189.982 52.3951C190.704 51.4602 191.724 50.6741 193.042 50.0367C195.294 48.9319 198.056 48.0182 201.328 47.2958C201.668 45.6811 201.88 44.64 201.965 44.1725C198.651 45.9573 195.506 46.8497 192.532 46.8497C188.452 46.8497 186.413 44.8524 186.413 40.858C186.413 39.4557 186.88 36.7149 187.815 32.6354C188.75 28.5135 189.217 25.6664 189.217 24.0942C189.217 22.5219 189.111 21.3533 188.898 20.5884C193.913 19.5261 197.801 18.9949 200.563 18.9949C200.903 19.5048 201.073 20.5247 201.073 22.0545C201.073 23.5417 200.584 26.4526 199.607 30.787C198.672 35.1213 198.205 37.671 198.205 38.4359C198.205 39.7532 198.842 40.4118 200.117 40.4118C200.839 40.4118 201.668 40.2206 202.603 39.8382C202.943 37.671 203.41 34.3777 204.005 29.9583C204.642 25.4965 205.089 22.4369 205.344 20.7796C206.448 20.2697 208.106 19.8448 210.315 19.5048C212.568 19.1224 214.544 18.9312 216.243 18.9312ZM193.488 54.8173C193.488 55.7946 194.125 56.2833 195.4 56.2833C196.037 56.2833 196.866 55.8371 197.886 54.9447C198.948 54.0949 199.798 52.82 200.436 51.1203C195.804 51.9277 193.488 53.16 193.488 54.8173Z" fill="white"/>
<path d="M186.929 24.1578L181.319 23.7116C180.937 30.8931 180.087 37.7558 178.77 44.2999C177.495 50.844 176.22 54.9446 174.945 56.6019C172.821 56.5594 170.76 56.3044 168.762 55.837C166.765 55.4121 165.405 54.9871 164.683 54.5622C166.298 49.123 167.445 44.4274 168.125 40.4755C168.805 36.481 169.485 30.9781 170.165 23.9666L165.958 24.4128C165.788 23.6054 165.703 22.798 165.703 21.9906C165.703 21.1407 165.809 20.2271 166.022 19.2497H170.611C171.248 12.9182 172.141 8.64751 173.288 6.43783C174.775 3.50575 176.56 1.63602 178.642 0.828632C179.917 0.276211 181.532 0 183.487 0C185.441 0 187.077 0.573668 188.395 1.721C189.754 2.82585 190.434 4.33438 190.434 6.2466C190.434 8.11634 189.563 10.2835 187.821 12.7482C186.079 15.2128 183.975 17.38 181.511 19.2497H187.948C187.948 21.162 187.608 22.798 186.929 24.1578ZM185.08 4.78056C183.295 4.78056 182.169 7.90387 181.702 14.1505C183.189 12.9606 184.379 11.6646 185.271 10.2623C186.206 8.81749 186.674 7.54267 186.674 6.43783C186.674 5.33299 186.142 4.78056 185.08 4.78056Z" fill="white"/>
<path d="M161.986 22.8191C161.986 24.6888 161.455 27.5997 160.393 31.5516C159.331 35.461 158.799 38.0107 158.799 39.2005C158.799 40.3903 159.033 40.9852 159.501 40.9852C159.968 40.9852 160.818 40.7728 162.05 40.3478L162.624 40.0929L163.771 43.2799C162.326 44.3848 160.52 45.3621 158.353 46.212C156.229 47.0619 154.295 47.4868 152.553 47.4868C150.811 47.4868 149.43 46.9981 148.41 46.0208C147.432 45.0434 146.944 43.6411 146.944 41.8139C146.944 39.9441 147.454 37.1183 148.473 33.3363C149.536 29.5119 150.067 27.0897 150.067 26.0699C150.067 24.4976 149.515 23.0103 148.41 21.608L147.9 20.9069L148.091 19.8233C150.301 19.1434 154.593 18.8034 160.967 18.8034C161.647 19.5683 161.986 20.9069 161.986 22.8191ZM157.206 13.8316C155.294 13.8316 153.785 13.3217 152.68 12.3019C151.618 11.282 151.087 9.98594 151.087 8.41366C151.087 6.79889 151.745 5.46033 153.063 4.39799C154.423 3.29314 156.059 2.74072 157.971 2.74072C159.883 2.74072 161.37 3.18691 162.433 4.07928C163.495 4.97166 164.026 6.22523 164.026 7.83999C164.026 9.45476 163.368 10.8571 162.05 12.0469C160.775 13.2367 159.161 13.8316 157.206 13.8316Z" fill="white"/>
<path d="M146.855 24.1576L141.373 23.7114C139.673 31.3178 138.739 35.7372 138.569 36.9695C138.441 38.2019 138.377 39.2217 138.377 40.0291C138.377 40.794 138.632 41.1764 139.142 41.1764C139.737 41.1764 140.863 40.794 142.521 40.0291L144.05 43.0887C142.691 44.321 140.97 45.3621 138.887 46.212C136.805 47.0618 134.787 47.4868 132.832 47.4868C130.92 47.4868 129.39 46.9981 128.243 46.0207C127.095 45.0009 126.522 43.5773 126.522 41.7501C126.522 39.9229 127.053 36.9908 128.115 32.9539C129.178 28.9169 129.879 25.9211 130.219 23.9664C129.199 24.0514 127.69 24.2001 125.693 24.4126C125.523 23.5202 125.438 22.6916 125.438 21.9267C125.438 21.1193 125.544 20.2269 125.757 19.2496H130.856C130.899 18.6971 130.92 16.8487 130.92 13.7041L130.792 11.0907C134.914 9.73093 138.845 9.05103 142.584 9.05103C142.882 9.73093 143.031 10.9208 143.031 12.6205C143.031 14.2778 142.754 16.4875 142.202 19.2496H147.939C147.939 20.9918 147.577 22.6278 146.855 24.1576Z" fill="white"/>
<path d="M91.0045 47.1045H89.9209C89.9209 44.4699 90.5158 40.4754 91.7057 35.1212C92.938 29.767 93.5542 26.6862 93.5542 25.8788C93.5542 25.0714 93.3629 24.2853 92.9805 23.5204C92.5981 22.7555 92.2156 22.1818 91.8332 21.7994L91.2595 21.2257L91.387 20.2696C93.8941 19.4622 98.271 19.0585 104.518 19.0585C104.943 20.0359 105.24 21.0557 105.41 22.1181C109.277 19.7384 112.528 18.5486 115.162 18.5486C116.947 18.5486 118.349 19.1435 119.369 20.3333C120.389 21.4807 120.899 22.883 120.899 24.5402C120.899 26.155 120.432 28.7684 119.497 32.3804C118.562 35.9923 118.094 38.3507 118.094 39.4556C118.094 40.5179 118.243 41.0491 118.541 41.0491L121.919 40.1567L123.066 43.3438C121.706 44.3636 119.922 45.3197 117.712 46.2121C115.545 47.062 113.548 47.4869 111.72 47.4869C108.108 47.4869 106.302 45.6172 106.302 41.8777C106.302 40.263 106.749 37.6284 107.641 33.9739C108.533 30.3194 108.979 28.046 108.979 27.1536C108.979 26.2187 108.682 25.7513 108.087 25.7513C107.322 25.7513 106.302 26.1762 105.028 27.0261C104.858 27.791 104.433 29.6395 103.753 32.5716C102.393 38.7332 101.713 43.1738 101.713 45.8934C99.6308 46.7008 96.0613 47.1045 91.0045 47.1045Z" fill="white"/>
<path d="M61.0433 35.185C61.0433 29.9157 62.6369 25.8151 65.8239 22.883C69.0534 19.9509 73.0266 18.4849 77.7434 18.4849C81.0155 18.4849 83.6289 19.2073 85.5836 20.6521C87.5808 22.0543 88.5794 23.9453 88.5794 26.325C88.5794 28.0672 88.0482 29.6183 86.9859 30.9781C85.9235 32.3379 84.6275 33.379 83.0977 34.1014C79.8681 35.5462 77.0635 36.4173 74.6839 36.7148L73.0904 36.906C73.5578 39.7106 74.9601 41.1129 77.2973 41.1129C78.3171 41.1129 79.4432 40.9004 80.6755 40.4755C81.9078 40.008 82.8852 39.5406 83.6076 39.0732L84.6912 38.4358L86.7309 41.1766C86.7309 41.1766 86.4972 41.4103 86.0298 41.8778C85.7748 42.1327 85.1586 42.6427 84.1813 43.4075C83.2464 44.1299 82.2478 44.7674 81.1855 45.3198C80.1656 45.8722 78.8483 46.3609 77.2335 46.7858C75.6187 47.2532 74.004 47.487 72.3892 47.487C68.7772 47.487 65.9726 46.4459 63.9754 44.3637C62.0207 42.239 61.0433 39.1794 61.0433 35.185ZM72.8354 32.6991C74.0677 32.5291 75.3 31.5305 76.5324 29.7033C77.7647 27.8335 78.3809 26.2825 78.3809 25.0502C78.3809 23.7754 78.0197 23.1379 77.2973 23.1379C76.2349 23.1379 75.2575 23.9666 74.3652 25.6238C73.4728 27.2811 72.9629 29.6395 72.8354 32.6991Z" fill="white"/>
<path d="M35.5305 39.4556L36.3591 26.1337C36.3591 24.9864 36.1892 24.094 35.8492 23.4566C35.5518 22.7767 34.9143 21.8419 33.937 20.652L34.1919 19.6959C37.464 18.931 40.1836 18.5486 42.3508 18.5486C44.518 18.5486 46.0265 19.0585 46.8764 20.0784C47.7687 21.0557 48.2149 22.458 48.2149 24.2853C48.2149 26.1125 47.875 28.7896 47.1951 32.3166C46.5577 35.8436 46.239 38.1808 46.239 39.3281C46.239 40.4329 46.5577 40.9854 47.1951 40.9854C48.2149 40.9854 49.5322 40.0293 51.147 38.117C52.8043 36.1623 53.8879 34.2501 54.3978 32.3804L49.681 27.8548C49.851 26.07 50.2334 24.4127 50.8283 22.883C51.4232 21.3107 51.9544 20.2058 52.4218 19.5684L53.1867 18.5486C58.3285 18.5486 60.8994 20.6733 60.8994 24.9227C60.8994 27.6848 60.0495 30.8081 58.3497 34.2926C56.6925 37.7346 54.3553 40.7941 51.3382 43.4713C48.3212 46.1484 45.1979 47.4869 41.9683 47.4869C37.6764 47.4869 35.5305 44.8098 35.5305 39.4556Z" fill="white"/>
<path d="M14.7241 47.5507C9.36991 47.5507 5.248 45.8297 2.35841 42.3877C0.786137 40.518 0 38.2445 0 35.5674C0 31.9554 1.27482 29.0021 3.82445 26.7074C6.37409 24.3703 9.39115 23.0105 12.8757 22.628C7.52142 21.1832 4.84431 18.1024 4.84431 13.3856C4.84431 9.73113 6.41658 6.84154 9.56113 4.71685C12.7057 2.54966 16.2752 1.46606 20.2696 1.46606C24.3065 1.46606 27.6635 2.2947 30.3407 3.95196C33.0178 5.60922 34.3563 7.79766 34.3563 10.5173C34.3563 12.0895 33.9314 13.5768 33.0815 14.9791L32.6353 15.6803C30.8931 15.6803 29.0233 15.4253 27.0261 14.9154C25.0289 14.363 23.5204 13.6618 22.5005 12.8119L23.1379 6.31037C22.5005 6.01291 21.8631 5.86418 21.2257 5.86418C19.9084 5.86418 18.8885 6.56533 18.1661 7.96763C17.4862 9.36993 17.1463 11.0059 17.1463 12.8757C17.1463 14.7454 17.3375 16.2327 17.72 17.3375C18.1449 18.4424 18.7823 19.2923 19.6322 19.8872C20.5246 20.4396 21.2894 20.8433 21.9269 21.0983C22.6068 21.3107 23.5416 21.5444 24.7315 21.7994L24.2215 25.4964C21.2894 25.4964 18.5911 26.325 16.1264 27.9823C13.6618 29.6395 12.4295 31.8705 12.4295 34.6751C12.4295 36.6723 13.0669 38.1383 14.3417 39.0732C15.6165 39.9655 17.125 40.4117 18.8673 40.4117C20.652 40.4117 22.5218 39.9655 24.4765 39.0732C26.4312 38.1808 28.1097 37.0547 29.512 35.6949L32.3804 38.5632C30.5531 41.0704 28.0247 43.1951 24.7952 44.9373C21.5657 46.6796 18.2086 47.5507 14.7241 47.5507Z" fill="white"/>
</svg>
