<svg width="20" height="20" viewBox="0 0 20 20" fill="none" xmlns="http://www.w3.org/2000/svg">
<path d="M18.3334 10.0001C18.3334 14.6024 14.6024 18.3334 10 18.3334C5.39765 18.3334 1.66669 14.6024 1.66669 10.0001C1.66669 5.39771 5.39765 1.66675 10 1.66675C14.6024 1.66675 18.3334 5.39771 18.3334 10.0001Z" stroke="#00B8B8" stroke-width="1.25"/>
<path d="M12.2585 8.38433C12.1759 7.74878 11.4462 6.72193 10.134 6.7219C8.60935 6.72188 7.96782 7.5663 7.83764 7.9885C7.63456 8.55325 7.67518 9.71433 9.46227 9.84091C11.6962 9.99925 12.5911 10.2629 12.4773 11.6301C12.3634 12.9972 11.1181 13.2926 10.134 13.2608C9.14985 13.2292 7.53972 12.7772 7.47723 11.5612M9.97785 5.83179V6.72493M9.97785 13.2527V14.1651" stroke="#00B8B8" stroke-width="1.25" stroke-linecap="round"/>
</svg>
