<svg width="25" height="24" viewBox="0 0 25 24" fill="none" xmlns="http://www.w3.org/2000/svg">
<path d="M7.58848 4.76243L6.58847 5.54298C5.07181 6.72681 4.31348 7.31873 3.90674 8.15333C3.5 8.98792 3.5 9.95205 3.5 11.8803V13.9715C3.5 17.7562 3.5 19.6485 4.67157 20.8243C5.84315 22 7.72876 22 11.5 22H13.5C17.2712 22 19.1569 22 20.3284 20.8243C21.5 19.6485 21.5 17.7562 21.5 13.9715V11.8803C21.5 9.95205 21.5 8.98792 21.0933 8.15333C20.6865 7.31873 19.9282 6.72681 18.4115 5.54298L17.4115 4.76243C15.0521 2.92081 13.8724 2 12.5 2C11.1276 2 9.94787 2.92081 7.58848 4.76243Z" stroke="#999999" stroke-width="1.5" stroke-linejoin="round"/>
<path d="M12.5 18C13.8807 18 15 16.8807 15 15.5C15 14.1193 13.8807 13 12.5 13C11.1193 13 10 14.1193 10 15.5C10 16.8807 11.1193 18 12.5 18Z" stroke="#999999" stroke-width="1.5" stroke-linecap="round" stroke-linejoin="round"/>
</svg>
