<svg width="16" height="16" viewBox="0 0 16 16" fill="none" xmlns="http://www.w3.org/2000/svg">
<path d="M8.00001 14.6667C11.6819 14.6667 14.6667 11.6819 14.6667 8.00004C14.6667 4.31814 11.6819 1.33337 8.00001 1.33337C4.31811 1.33337 1.33334 4.31814 1.33334 8.00004C1.33334 11.6819 4.31811 14.6667 8.00001 14.6667Z" stroke="white"/>
<path d="M8.00522 7.00547C7.45295 7.00547 7.00522 7.4532 7.00522 8.00547C7.00522 8.55774 7.45295 9.00547 8.00522 9.00547C8.55749 9.00547 9.00522 8.55774 9.00522 8.00547C9.00522 7.4532 8.55749 7.00547 8.00522 7.00547ZM8.00522 7.00547V4.66602M10.0098 10.0132L8.71075 8.71414" stroke="white" stroke-linecap="round" stroke-linejoin="round"/>
</svg>
